# xmcd
#
# Track frame offsets:
#	150
#	18891
#	30844
#	50834
#	67987
#	86203
#	106024
#	124512
#	138447
#	160575
#	184301
#	201959
#	222537
#	236614
#	253112
#	266810
#	282820
#	300281
#
# Disc length: 4140
#
# Revision: 2
# Processed by: cddbd v1.5.1PL0 Copyright (c) Steve Scherf et al.
# Submitted via: CDex 1.30
# Normalized: r1:DSETVAR1,TDELIM( - )
#
DISCID=f9102a12
DTITLE=Various Artist - Blues Panet - The Best of Road Music
DYEAR=2001
DGENRE=Blues
TTITLE0=King B. - Why People Like That
TTITLE1=B.B.King - Paying The Cost To Be The Boss
TTITLE2=Omar and The Howlers - Black Bottom
TTITLE3=Dave Hole - Keep Your Motor Running
TTITLE4=Bob Margolin - The Door Was Open
TTITLE5=Tinsley Ellis - To The Devil For A Dime
TTITLE6=Ronnie Earl - Green Light
TTITLE7=C.J. Chenier - Man Smart, Woman Smarter
TTITLE8=Duke Robbilard - Rule The World
TTITLE9=Peter Green - Slabo Day
TTITLE10=Offs Rush - I Miss You So
TTITLE11=Junior Wells - Everybody Gettin` Them Some
TTITLE12=Roy Buchanan - Goose Grease
TTITLE13=Ron Levy's - Funk Finger
TTITLE14=Taj Mahal - Statesboro Blues
TTITLE15=Little Mike - 1 Should Have Known Better
TTITLE16=Lonnie Mack - Strike Like Lightning
TTITLE17=Katie Webster - The Katie Lee
EXTD=YEAR: 2001  ID3G:   0
EXTT0=
EXTT1=
EXTT2=
EXTT3=
EXTT4=
EXTT5=
EXTT6=
EXTT7=
EXTT8=
EXTT9=
EXTT10=
EXTT11=
EXTT12=
EXTT13=
EXTT14=
EXTT15=
EXTT16=
EXTT17=
PLAYORDER=
